<?xml version="1.0" encoding="UTF-8" standalone="no"?><!DOCTYPE svg PUBLIC "-//W3C//DTD SVG 1.1//EN" "http://www.w3.org/Graphics/SVG/1.1/DTD/svg11.dtd"><svg width="100%" height="100%" viewBox="0 0 3600 3600" version="1.1" xmlns="http://www.w3.org/2000/svg" xmlns:xlink="http://www.w3.org/1999/xlink" xml:space="preserve" xmlns:serif="http://www.serif.com/" style="fill-rule:evenodd;clip-rule:evenodd;stroke-linecap:round;stroke-linejoin:round;stroke-miterlimit:1.5;"><rect x="0" y="0" width="3600" height="3600" style="fill:#392b4d;stroke:#000;stroke-width:4.17px;"/><g transform="matrix(1,0,0,1,-4,0)"><path d="M518.783,1598.98C1518.687,1526.648 1692.253,1552.965 1661.725,596.58" style="fill:none;stroke:#ff3085;stroke-width:20.83px;"/></g><g transform="matrix(1,0,0,1,-7,0)"><path d="M518.783,1598.98C1628.975,1711.933 1620.82,1663.254 1669.701,2550.888" style="fill:none;stroke:#ff3085;stroke-width:20.83px;"/></g><g transform="matrix(1,0,0,1,-7,0)"><path d="M3607,1621.507C2783.532,1632.131 2393.239,1601.09 2095.68,1726.007C1854.829,1827.119 1930.528,2172.982 1909.179,2539.774" style="fill:none;stroke:#ff3085;stroke-width:20.83px;"/></g><g transform="matrix(1,0,0,1,-3,-44)"><path d="M3603,1583.56C2279.297,1598.252 2088.682,1605.908 1998.656,1417.751C1899.862,1211.269 1901.131,1161.237 1897.469,673.292" style="fill:none;stroke:#ff3085;stroke-width:20.83px;"/></g><path d="M1660.926,970.456L1613.232,1210.864L1562.708,1337.457L1505.193,1408.669L1414.142,1472.582L1218.24,1537.164L616.625,1598.98L714.384,1617.962L1162.061,1668.897L1382.481,1724.099L1511.001,1800L1597.17,1927.609L1623.1,2074.934L1658.179,2370.197L1902.179,2363.644L1903.179,2103.056L1925.143,1949.151L1978.601,1800L2071.184,1729.598L2177.408,1683.17L2367.622,1656.34L2491.27,1645.1L2805.826,1619.658L2522.365,1546.315L2231.947,1525.992L2092.488,1477.261L2009.719,1403.82L1974.95,1328.956L1925.794,1201.72L1894.469,1006.178L1660.926,970.456Z" style="fill:#ee3584;stroke:#ff3085;stroke-width:4.17px;"/><path d="M3324.993,1616.251C3323.613,1616.236 3322.505,1615.104 3322.52,1613.724C3322.535,1612.344 3323.667,1611.236 3325.047,1611.251C3326.687,1611.269 3536.632,1609.564 3544.129,1609.086C3561.005,1608.01 3570.345,1606.929 3592.366,1607.444C3605.528,1607.752 3605.367,1609.002 3618.36,1608.08C3619.737,1607.983 3620.933,1609.021 3621.031,1610.397C3621.128,1611.774 3620.09,1612.97 3618.714,1613.068C3605.485,1614.006 3605.649,1612.756 3592.249,1612.443C3570.427,1611.932 3561.171,1613.009 3544.447,1614.076C3536.938,1614.554 3326.635,1616.269 3324.993,1616.251Z" style="fill:#ff3085;"/><g transform="matrix(1,0,0,1,-806,0)"><path d="M2613.179,0L2613.179,3600" style="fill:none;stroke:#ff3085;stroke-width:20.83px;"/></g><g transform="matrix(1,0,0,1,-710,0)"><path d="M2613.179,0L2613.179,3600" style="fill:none;stroke:#ff3085;stroke-width:20.83px;"/></g><g transform="matrix(1,0,0,1,-5,0)"><path d="M1662.701,596.58C1658.314,129.447 1375.313,-21.302 561.599,-15.11" style="fill:none;stroke:#ff3085;stroke-width:20.83px;"/></g><g transform="matrix(1,0,0,1,-3,0)"><path d="M911.01,-15.292L1682.59,-15.292L1668.701,508.772L1617.604,323.758L1560.937,219.677L1440.666,120.222L1299.579,57.774L1186.246,28.862L911.01,-15.292Z" style="fill:#ee3584;stroke:#ff3085;stroke-width:4.17px;"/></g><g transform="matrix(1,0,0,1,1388.481694,0)"><path d="M1807.701,596.58C1803.314,129.447 1520.313,-21.302 706.599,-15.11" style="fill:none;stroke:#ff3085;stroke-width:20.83px;"/></g><g transform="matrix(1,0,0,1,1390.481694,0)"><path d="M1056.01,-15.292L1807.701,-15.292L1807.701,482.192L1762.604,323.758L1705.937,219.677L1585.666,120.222L1444.579,57.774L1331.246,28.862L1056.01,-15.292Z" style="fill:#ee3584;stroke:#ff3085;stroke-width:4.17px;"/></g><g transform="matrix(5.555458,0,0,1,-8334.123363,0)"><rect x="1800" y="-15.292" width="41.179" height="1048.129" style="fill:#ee3584;stroke:#ff3085;stroke-width:1.04px;"/></g><g transform="matrix(5.848636,0,0,1.002199,-8897.312191,-8.0237)"><rect x="1804.701" y="2246.137" width="40.479" height="1402.199" style="fill:#ee3584;stroke:#ff3085;stroke-width:0.99px;"/></g><path d="M337.275,3608.458C1519.574,3635.519 1638.216,3351.026 1657.725,2513.027" style="fill:none;stroke:#ff3085;stroke-width:20.83px;"/><path d="M1657.701,2773.03L1588.03,3152.89L1459.304,3370.499C1366.947,3426.512 1296.177,3473.273 1198.68,3524.146L908.01,3600L756.89,3648.335L1679.59,3619.458L1679.59,3119.722L1657.701,2773.03Z" style="fill:#ee3584;stroke:#ff3085;stroke-width:4.17px;"/><g transform="matrix(1,0,0,1,1390.007524,0)"><path d="M1015.484,3648.335C1723.96,3521.843 1805.269,3442.733 1804.701,2725.197" style="fill:none;stroke:#ff3085;stroke-width:20.83px;"/></g><g transform="matrix(1,0,0,1,1390.007524,0)"><path d="M1800,3124.138L1726.171,3350.125L1612.61,3479.524L1341.624,3587.879L1257.203,3600L1255.624,3608.367L1824.59,3619.458L1824.59,3119.722L1800,3124.138Z" style="fill:#ee3584;stroke:#ff3085;stroke-width:4.17px;"/></g><g transform="matrix(1,0,0,2.410654,0,-2287.384841)"><rect x="2564.187" y="1590.316" width="1035.813" height="31.191" style="fill:#ee3584;stroke:#ff3085;stroke-width:2.26px;"/></g><g transform="matrix(2.00523,0,0,1,-3298.209785,-72.151324)"><rect x="3234.238" y="0" width="205.871" height="3744.303" style="fill:#ee3584;stroke:#ff3085;stroke-width:2.63px;"/></g><g transform="matrix(1,0,0,1.725396,0,-1185.67856)"><rect x="3187.182" y="1576.633" width="412.818" height="57.894" style="fill:#392b4d;stroke:#3a2a4c;stroke-width:2.95px;"/></g></svg>